<?xml version="1.0" encoding="UTF-8"?>
<svg version="1.1" xmlns="http://www.w3.org/2000/svg" width="238" height="229">
<path d="M0 0 C1.11526566 -0.00570007 2.23053131 -0.01140015 3.3795929 -0.01727295 C5.73881086 -0.02669094 8.09804179 -0.03324416 10.45727539 -0.03710938 C13.99455122 -0.04672219 17.5312219 -0.07773825 21.06835938 -0.109375 C45.08230376 -0.22177971 67.01156944 0.64862409 86.36328125 16.203125 C87.29140625 16.90566406 88.21953125 17.60820312 89.17578125 18.33203125 C95.94286909 23.58592306 101.19174628 29.39794623 106.36328125 36.203125 C106.9871875 36.98558594 107.61109375 37.76804688 108.25390625 38.57421875 C112.36328125 43.80695093 112.36328125 43.80695093 112.36328125 47.203125 C113.02328125 47.203125 113.68328125 47.203125 114.36328125 47.203125 C119.93893578 58.25758646 124.45754817 69.14757382 127.36328125 81.203125 C127.54874512 81.9355542 127.73420898 82.6679834 127.92529297 83.42260742 C129.62183816 90.80583287 129.74880156 98.08799754 129.73828125 105.640625 C129.73773743 106.30064514 129.7371936 106.96066528 129.7366333 107.64068604 C129.65376653 129.58049194 124.36394096 149.71204227 112.36328125 168.203125 C111.56470703 169.45996094 111.56470703 169.45996094 110.75 170.7421875 C101.18693133 185.12102583 88.29476285 197.57476562 73.36328125 206.203125 C72.7997998 206.53199707 72.23631836 206.86086914 71.65576172 207.19970703 C46.19267604 221.92109416 14.19578502 227.18998194 -14.57568359 219.69824219 C-32.46230866 214.74423314 -48.05709789 207.28205099 -62.296875 195.18359375 C-64.57993491 193.19390237 -64.57993491 193.19390237 -66.9453125 191.56640625 C-67.78255859 190.89158203 -67.78255859 190.89158203 -68.63671875 190.203125 C-68.63671875 189.543125 -68.63671875 188.883125 -68.63671875 188.203125 C-69.29671875 188.203125 -69.95671875 188.203125 -70.63671875 188.203125 C-70.63671875 187.543125 -70.63671875 186.883125 -70.63671875 186.203125 C-71.29671875 186.203125 -71.95671875 186.203125 -72.63671875 186.203125 C-74.27368525 184.34404223 -75.7747912 182.49028043 -77.26171875 180.515625 C-77.70539795 179.93127686 -78.14907715 179.34692871 -78.60620117 178.74487305 C-83.04244584 172.80947814 -86.94646457 166.63211043 -90.63671875 160.203125 C-91.10851562 159.39746094 -91.5803125 158.59179688 -92.06640625 157.76171875 C-103.5872847 136.61625552 -105.93039319 109.52505065 -101.63671875 86.203125 C-101.51699707 85.52862305 -101.39727539 84.85412109 -101.27392578 84.15917969 C-96.5392213 58.35654814 -81.78397431 31.14859899 -59.90771484 16.00634766 C-41.58140779 3.92885255 -21.78916307 0.08801216 0 0 Z " fill="#EDF4FA" transform="translate(104.63671875,6.796875)"/>
<path d="M0 0 C6.3631104 4.4071675 15.42908317 10.8497495 17.9375 18.375 C18.05409598 19.87176706 18.11248959 21.37375061 18.125 22.875 C18.13917969 23.6484375 18.15335938 24.421875 18.16796875 25.21875 C17.9375 27.375 17.9375 27.375 15.9375 30.375 C15.2775 30.375 14.6175 30.375 13.9375 30.375 C13.9375 31.035 13.9375 31.695 13.9375 32.375 C10.21870862 33.61459713 6.79584374 34.05096967 2.9375 33.375 C0.3125 31.1875 0.3125 31.1875 -2.0625 28.375 C-3.15117811 27.46040645 -4.25560429 26.56422951 -5.375 25.6875 C-6.7053125 24.5428125 -6.7053125 24.5428125 -8.0625 23.375 C-8.0625 22.715 -8.0625 22.055 -8.0625 21.375 C-8.701875 21.148125 -9.34125 20.92125 -10 20.6875 C-12.58131156 19.58122362 -14.78635481 18.36870324 -17.1875 16.9375 C-29.47014283 10.17604515 -44.03649779 9.56579659 -57.69921875 12.03125 C-71.29834083 16.1554282 -82.87583533 25.29146991 -89.7421875 37.7109375 C-93.86315292 46.02602158 -95.42005495 53.32459379 -95.5 62.5625 C-95.51522705 63.80942627 -95.51522705 63.80942627 -95.53076172 65.08154297 C-95.41284046 73.45395262 -92.82782631 80.29617299 -89 87.6875 C-88.49339844 88.67363281 -87.98679687 89.65976563 -87.46484375 90.67578125 C-87.00207031 91.56652344 -86.53929688 92.45726562 -86.0625 93.375 C-85.71316406 94.13167969 -85.36382812 94.88835937 -85.00390625 95.66796875 C-84.1731279 97.55604073 -84.1731279 97.55604073 -82.0625 98.375 C-79.53404472 99.63922764 -79.29827236 100.90345528 -78.0625 103.375 C-76.31382517 104.45931094 -76.31382517 104.45931094 -74.0625 105.375 C-72.31246066 106.3907571 -70.57709881 107.42870753 -68.84375 108.47265625 C-67.07395389 109.48260023 -67.07395389 109.48260023 -64.95703125 109.71484375 C-63.0625 110.375 -63.0625 110.375 -62.04296875 112.34375 C-61.65044922 113.59671875 -61.65044922 113.59671875 -61.25 114.875 C-58.0184487 123.64277486 -52.94281298 129.37329629 -44.98046875 134.18359375 C-43.0625 135.375 -43.0625 135.375 -41.0625 137.375 C-60.62906918 138.04457841 -79.43091498 131.59371511 -94.0625 118.375 C-102.6619477 110.29646639 -108.49595844 102.34490431 -113.0625 91.375 C-113.48273438 90.36953125 -113.90296875 89.3640625 -114.3359375 88.328125 C-119.64673735 74.69330552 -120.25862971 56.44294931 -116.0625 42.375 C-115.82917969 41.46234375 -115.59585938 40.5496875 -115.35546875 39.609375 C-110.08638725 21.22773908 -96.54836603 6.46651962 -80.38671875 -3.23046875 C-54.05079571 -16.88146554 -25.22206414 -15.86496974 0 0 Z " fill="#1E84DB" transform="translate(162.0625,53.625)"/>
<path d="M0 0 C2.16015625 1.35546875 2.16015625 1.35546875 4.0625 3.1875 C5.08730469 4.15816406 5.08730469 4.15816406 6.1328125 5.1484375 C7.05707031 6.06496094 7.05707031 6.06496094 8 7 C9.2065625 8.1446875 9.2065625 8.1446875 10.4375 9.3125 C13.65354069 12.68542073 16.75330263 16.15341 19.8359375 19.6484375 C21.5354453 21.49519507 23.19719006 23.04182647 25.125 24.625 C27.23462169 27.29718747 27.29020181 27.9237741 27.0625 31.1875 C26 35 26 35 24.35546875 36.23046875 C21.23955916 37.2484359 18.52109297 37.19042186 15.25 37.125 C14.07953125 37.10695312 12.9090625 37.08890625 11.703125 37.0703125 C10.81109375 37.04710937 9.9190625 37.02390625 9 37 C9.06902205 41.75108144 9.15705753 46.50129493 9.26245117 51.25170898 C9.2956311 52.86651963 9.32368458 54.48144431 9.34643555 56.09643555 C9.38011025 58.42285592 9.43242963 60.74823783 9.48828125 63.07421875 C9.49467117 63.79212082 9.5010611 64.51002289 9.50764465 65.24967957 C9.63573101 69.65202506 10.28305874 72.50495818 13 76 C17.4796453 78.9864302 21.74951872 78.58926265 27 78 C31.93977159 75.72010542 34.88493183 71.97123437 38.34765625 67.90234375 C41.46237278 64.31636987 43.8470404 62.33540643 48.4375 61 C52.93722259 61 54.62374987 62.08414761 58 65 C60.09484415 67.65346926 60.90120399 69.50601994 61.5625 72.8125 C60.06366237 81.30591324 51.26864117 88.62816014 45 94 C34.25778624 101.04290836 23.91581597 102.5440342 11.265625 100.57421875 C2.07182953 97.91714666 -5.08197939 91.00166698 -10 83 C-13.6020914 76.30434775 -14.15358987 69.6823411 -14.09765625 62.1953125 C-14.0962413 61.4713327 -14.09482635 60.74735291 -14.09336853 60.00143433 C-14.08781075 57.70924593 -14.07526633 55.41715843 -14.0625 53.125 C-14.05747953 51.56250142 -14.05291759 50.00000129 -14.04882812 48.4375 C-14.03785519 44.62496165 -14.0206201 40.81249788 -14 37 C-15.44632813 37.06960937 -15.44632813 37.06960937 -16.921875 37.140625 C-18.18515625 37.17671875 -19.4484375 37.2128125 -20.75 37.25 C-22.00296875 37.29640625 -23.2559375 37.3428125 -24.546875 37.390625 C-28 37 -28 37 -30.43945312 35.18603516 C-32 33 -32 33 -32.21875 29.7734375 C-30.5101179 24.48324965 -27.38736721 21.4953823 -23.5 17.625 C-22.77184082 16.8812915 -22.04368164 16.13758301 -21.29345703 15.37133789 C-19.85274879 13.90254723 -18.40643996 12.4392254 -16.95410156 10.98193359 C-15.31222139 9.31666832 -13.71813254 7.62727354 -12.1484375 5.89453125 C-11.39820312 5.08371094 -10.64796875 4.27289063 -9.875 3.4375 C-9.25367187 2.75558594 -8.63234375 2.07367188 -7.9921875 1.37109375 C-5.17031355 -0.5710195 -3.35305071 -0.46099011 0 0 Z " fill="#1E8AE8" transform="translate(122,82)"/>
<path d="M0 0 C0.99 0.99 1.98 1.98 3 3 C2.01 3.495 2.01 3.495 1 4 C0.37617294 6.73589643 0.37617294 6.73589643 0 10 C-0.16886719 11.0003125 -0.33773437 12.000625 -0.51171875 13.03125 C-1.1225718 17.99626358 -1.22287493 22.87720594 -1.25 27.875 C-1.270625 28.81730469 -1.29125 29.75960937 -1.3125 30.73046875 C-1.3617821 39.63820882 0.98582251 46.44065472 5.0625 54.3125 C5.56910156 55.29863281 6.07570313 56.28476563 6.59765625 57.30078125 C7.06042969 58.19152344 7.52320312 59.08226562 8 60 C8.34933594 60.75667969 8.69867188 61.51335937 9.05859375 62.29296875 C9.8893721 64.18104073 9.8893721 64.18104073 12 65 C14.52845528 66.26422764 14.76422764 67.52845528 16 70 C17.74867483 71.08431094 17.74867483 71.08431094 20 72 C21.75003934 73.0157571 23.48540119 74.05370753 25.21875 75.09765625 C26.98854611 76.10760023 26.98854611 76.10760023 29.10546875 76.33984375 C31 77 31 77 32.01953125 78.96875 C32.41205078 80.22171875 32.41205078 80.22171875 32.8125 81.5 C36.0440513 90.26777486 41.11968702 95.99829629 49.08203125 100.80859375 C51 102 51 102 53 104 C33.43343082 104.66957841 14.63158502 98.21871511 0 85 C-8.60642913 76.91490786 -14.41281904 68.96823157 -19 58 C-19.63035156 56.56140625 -19.63035156 56.56140625 -20.2734375 55.09375 C-24.30266235 45.14928016 -25.22628199 35.96297481 -21.14892578 25.89941406 C-20.17826352 23.66385909 -19.16068565 21.45612594 -18.125 19.25 C-17.78597656 18.49589844 -17.44695313 17.74179688 -17.09765625 16.96484375 C-13.86057986 10.03528478 -13.86057986 10.03528478 -10 8 C-9.34 8 -8.68 8 -8 8 C-6.57607884 6.71904281 -5.20766179 5.37565088 -3.875 4 C-3.15054688 3.2575 -2.42609375 2.515 -1.6796875 1.75 C-1.12539062 1.1725 -0.57109375 0.595 0 0 Z " fill="#22B7D0" transform="translate(68,87)"/>
<path d="M0 0 C2.16015625 1.35546875 2.16015625 1.35546875 4.0625 3.1875 C5.08730469 4.15816406 5.08730469 4.15816406 6.1328125 5.1484375 C7.05707031 6.06496094 7.05707031 6.06496094 8 7 C9.2065625 8.1446875 9.2065625 8.1446875 10.4375 9.3125 C13.65354069 12.68542073 16.75330263 16.15341 19.8359375 19.6484375 C21.5354453 21.49519507 23.19719006 23.04182647 25.125 24.625 C27.23462169 27.29718747 27.29020181 27.9237741 27.0625 31.1875 C26.5365625 33.0746875 26.5365625 33.0746875 26 35 C22 37 22 37 9 37 C9 47.89 9 58.78 9 70 C8.67 70 8.34 70 8 70 C7.505 62.575 7.505 62.575 7 55 C5.35 55.66 3.7 56.32 2 57 C-0.28125 57.30078125 -0.28125 57.30078125 -2.5 57.3125 C-3.2321875 57.32925781 -3.964375 57.34601563 -4.71875 57.36328125 C-7 57 -7 57 -12 54 C-12.33 59.28 -12.66 64.56 -13 70 C-13.33 70 -13.66 70 -14 70 C-14 59.11 -14 48.22 -14 37 C-18.62 37 -23.24 37 -28 37 C-32 33 -32 33 -32.21875 29.7734375 C-30.5101179 24.48324965 -27.38736721 21.4953823 -23.5 17.625 C-22.77184082 16.8812915 -22.04368164 16.13758301 -21.29345703 15.37133789 C-19.85274879 13.90254723 -18.40643996 12.4392254 -16.95410156 10.98193359 C-15.31222139 9.31666832 -13.71813254 7.62727354 -12.1484375 5.89453125 C-11.39820312 5.08371094 -10.64796875 4.27289063 -9.875 3.4375 C-9.25367187 2.75558594 -8.63234375 2.07367188 -7.9921875 1.37109375 C-5.17031355 -0.5710195 -3.35305071 -0.46099011 0 0 Z " fill="#27B7D9" transform="translate(122,82)"/>
<path d="M0 0 C6.3631104 4.4071675 15.42908317 10.8497495 17.9375 18.375 C18.05409598 19.87176706 18.11248959 21.37375061 18.125 22.875 C18.13917969 23.6484375 18.15335937 24.421875 18.16796875 25.21875 C17.9375 27.375 17.9375 27.375 15.9375 30.375 C15.2775 30.375 14.6175 30.375 13.9375 30.375 C13.9375 31.035 13.9375 31.695 13.9375 32.375 C10.21870862 33.61459713 6.79584374 34.05096967 2.9375 33.375 C0.3125 31.1875 0.3125 31.1875 -2.0625 28.375 C-3.15117811 27.46040645 -4.25560429 26.56422951 -5.375 25.6875 C-6.261875 24.924375 -7.14875 24.16125 -8.0625 23.375 C-8.0625 22.715 -8.0625 22.055 -8.0625 21.375 C-8.64 21.148125 -9.2175 20.92125 -9.8125 20.6875 C-12.65780878 19.02773655 -13.99903334 16.95433333 -16.0625 14.375 C-26.95768105 3.53157753 -39.68403435 -1.87516307 -54.0625 -6.625 C-54.0625 -7.615 -54.0625 -8.605 -54.0625 -9.625 C-54.825625 -9.41875 -55.58875 -9.2125 -56.375 -9 C-59.0625 -8.625 -59.0625 -8.625 -62.0625 -10.625 C-41.06606901 -16.64461898 -18.21964332 -11.46036615 0 0 Z " fill="#29CFD2" transform="translate(162.0625,53.625)"/>
<path d="M0 0 C2.5999298 2.51027705 4.99091227 4.9863684 7 8 C7 8.66 7 9.32 7 10 C7.61875 10.2475 8.2375 10.495 8.875 10.75 C11.40358627 12.23740369 11.71839004 13.43678009 13 16 C14.74867483 17.08431094 14.74867483 17.08431094 17 18 C18.75003934 19.0157571 20.48540119 20.05370753 22.21875 21.09765625 C23.98854611 22.10760023 23.98854611 22.10760023 26.10546875 22.33984375 C28 23 28 23 29.01953125 24.96875 C29.41205078 26.22171875 29.41205078 26.22171875 29.8125 27.5 C33.0440513 36.26777486 38.11968702 41.99829629 46.08203125 46.80859375 C48 48 48 48 50 50 C42.70198547 50.24974194 36.08194444 49.79261719 29 48 C28.071875 47.77054688 27.14375 47.54109375 26.1875 47.3046875 C20.97596154 45.89816434 20.97596154 45.89816434 19 45 C18.67 44.01 18.34 43.02 18 42 C16.35570171 40.31126121 14.68615782 38.64694485 13 37 C4.47671645 27.1123173 -0.43912204 13.0760786 0 0 Z " fill="#1EA5C3" transform="translate(71,141)"/>
<path d="M0 0 C1.09920823 1.64881235 2.18307236 3.30972241 3.19140625 5.015625 C8.75060953 14.07506739 15.65638482 19.43243595 26 22 C26 22.33 26 22.66 26 23 C20.72 22.67 15.44 22.34 10 22 C10 22.99 10 23.98 10 25 C11.32 25.33 12.64 25.66 14 26 C14 27.98 14 29.96 14 32 C8.06 32.495 8.06 32.495 2 33 C2 33.99 2 34.98 2 36 C0.68 35.67 -0.64 35.34 -2 35 C-1.67 34.01 -1.34 33.02 -1 32 C-2.299375 31.87625 -3.59875 31.7525 -4.9375 31.625 C-7.15234375 31.4140625 -7.15234375 31.4140625 -9 31 C-9.33 30.34 -9.66 29.68 -10 29 C-9.38253906 29.0721875 -8.76507813 29.144375 -8.12890625 29.21875 C-2.37891613 29.8488859 3.21646559 30.09328281 9 30 C8.13375 29.443125 7.2675 28.88625 6.375 28.3125 C-0.15151194 23.90518488 -4.1473437 19.87000217 -8 13 C-4.125 14.75 -4.125 14.75 -3 17 C-2.01 16.67 -1.02 16.34 0 16 C-0.08378906 15.34773437 -0.16757813 14.69546875 -0.25390625 14.0234375 C-0.82554104 9.11750856 -1.15311982 4.86872815 0 0 Z " fill="#D3EBFA" transform="translate(110,160)"/>
<path d="M0 0 C1.5 1.3125 1.5 1.3125 3 3 C3 3.99 3 4.98 3 6 C3.66 6 4.32 6 5 6 C5.433125 7.11375 5.86625 8.2275 6.3125 9.375 C7.69911119 13.17512334 7.69911119 13.17512334 11 15 C11 15.66 11 16.32 11 17 C12.65 16.34 14.3 15.68 16 15 C17.80411967 17.75924185 18.0127245 18.88972103 17.625 22.25 C17.315625 23.61125 17.315625 23.61125 17 25 C20.48670834 23.8905928 23.77484237 22.73662334 27 21 C29.13703919 24.12923596 31.14394899 27.22429893 32.9375 30.5625 C34.80823534 33.92536948 37.24223573 36.3167699 40 39 C40.33 39.99 40.66 40.98 41 42 C26.32269999 38.13755263 14.47012881 26.06791686 6 14 C0 3.55876289 0 3.55876289 0 0 Z " fill="#2DCFD3" transform="translate(49,143)"/>
<path d="M0 0 C2.5999298 2.51027705 4.99091227 4.9863684 7 8 C7 8.66 7 9.32 7 10 C7.61875 10.2475 8.2375 10.495 8.875 10.75 C11.40358627 12.23740369 11.71839004 13.43678009 13 16 C13.66 16.33 14.32 16.66 15 17 C17.49016793 18.24508396 17.98686718 19.46716796 19 22 C18.34 22.33 17.68 22.66 17 23 C16.34 23.350625 15.68 23.70125 15 24.0625 C13 25 13 25 11 25 C11 26.65 11 28.3 11 30 C7.37974641 28.7932488 7.17913352 28.11156681 5.5 24.8125 C1.85945081 17.17944519 -0.30252969 8.48675397 0 0 Z " fill="#1A8EB4" transform="translate(71,141)"/>
<path d="M0 0 C3.37867819 2.17737039 5.74721377 4.12775165 7 8 C7.66412051 12.26934611 6.94056517 14.45267774 4.5 17.875 C3.68006717 18.92724714 2.85100278 19.97271807 2 21 C1.67 20.01 1.34 19.02 1 18 C1.495 17.62875 1.99 17.2575 2.5 16.875 C4.59755514 14.25305607 4.21743835 12.26157528 4 9 C2.68 8.67 1.36 8.34 0 8 C-0.33 6.68 -0.66 5.36 -1 4 C-1.33 4.66 -1.66 5.32 -2 6 C-2.7425 5.79375 -3.485 5.5875 -4.25 5.375 C-7.46046826 4.93720887 -8.33331739 5.24998954 -11 7 C-11.825 7.721875 -12.65 8.44375 -13.5 9.1875 C-14.7375 10.0846875 -14.7375 10.0846875 -16 11 C-18.15625 10.61328125 -18.15625 10.61328125 -20 10 C-18.58972554 8.53548421 -17.17151204 7.0786107 -15.75 5.625 C-14.96109375 4.81289062 -14.1721875 4.00078125 -13.359375 3.1640625 C-8.79639887 -1.02118382 -6.08822974 -1.49535467 0 0 Z " fill="#1EA1F3" transform="translate(176,144)"/>
<path d="M0 0 C1.07121094 1.08861328 1.07121094 1.08861328 2.1640625 2.19921875 C3.96652307 3.97933477 5.81224167 5.71744113 7.7109375 7.39453125 C14.69823973 13.73637888 14.69823973 13.73637888 15.5625 17.35546875 C15.375 19.5 15.375 19.5 14 23 C10 25 10 25 -3 25 C-3 35.89 -3 46.78 -3 58 C-3.33 58 -3.66 58 -4 58 C-4.70863864 49.53429915 -5.10565666 41.12075823 -5.125 32.625 C-5.13176758 31.36755981 -5.13176758 31.36755981 -5.13867188 30.0847168 C-5.12386076 24.12386076 -5.12386076 24.12386076 -4 23 C-1.46950598 22.92686433 1.03304837 22.90752473 3.5625 22.9375 C4.27341797 22.94201172 4.98433594 22.94652344 5.71679688 22.95117188 C7.47790013 22.96299136 9.23896036 22.98092737 11 23 C11 22.34 11 21.68 11 21 C11.66 21 12.32 21 13 21 C13 19.02 13 17.04 13 15 C12.01 14.67 11.02 14.34 10 14 C10 13.34 10 12.68 10 12 C9.01 11.67 8.02 11.34 7 11 C5.4296875 9.51171875 5.4296875 9.51171875 3.875 7.6875 C3.35679687 7.09324219 2.83859375 6.49898438 2.3046875 5.88671875 C0.93492875 3.90589997 0.42587129 2.35267921 0 0 Z " fill="#5AB2D5" transform="translate(134,94)"/>
<path d="M0 0 C4.68650684 0.51876905 7.92771006 2.65126703 11.6875 5.3125 C12.26822266 5.70373047 12.84894531 6.09496094 13.44726562 6.49804688 C16.60600783 8.70003711 18.53566424 10.43363388 20 14 C21.32467746 14.6837045 22.65863633 15.34964186 24 16 C25.75 18.125 25.75 18.125 27 20 C22.31486863 18.1431406 17.67610386 16.1829188 13.03515625 14.21875 C10.05508992 13.02212105 7.05616823 11.98380378 4 11 C5.32 10.67 6.64 10.34 8 10 C7.67 8.68 7.34 7.36 7 6 C4.03 5.505 4.03 5.505 1 5 C0.67 3.35 0.34 1.7 0 0 Z " fill="#126EA4" transform="translate(124,53)"/>
<path d="M0 0 C-1.52583517 3.24806496 -3.38395547 6.14278046 -5.375 9.125 C-8.65171709 14.20767389 -11.00989396 19.30162184 -13 25 C-13.33 25 -13.66 25 -14 25 C-13.5 21.5 -13.5 21.5 -13 18 C-12.7834375 16.081875 -12.7834375 16.081875 -12.5625 14.125 C-12.376875 13.09375 -12.19125 12.0625 -12 11 C-11.34 10.67 -10.68 10.34 -10 10 C-13.06860631 9.67472392 -13.06860631 9.67472392 -15.04296875 11.75 C-16.10451172 12.86375 -16.10451172 12.86375 -17.1875 14 C-17.90292969 14.7425 -18.61835937 15.485 -19.35546875 16.25 C-19.89816406 16.8275 -20.44085938 17.405 -21 18 C-21.33 17.01 -21.66 16.02 -22 15 C-21.55269531 14.62488281 -21.10539062 14.24976562 -20.64453125 13.86328125 C-17.80286584 11.45786298 -15.10024818 9.10795958 -12.5625 6.375 C-9.23075714 3.28704321 -4.72222371 0 0 0 Z " fill="#1B8EC1" transform="translate(80,79)"/>
<path d="M0 0 C0 0.99 0 1.98 0 3 C-2 5 -2 5 -4.3125 5.8125 C-7.65292725 7.28850274 -9.53598454 9.3361995 -12 12 C-12.66 12.66 -13.32 13.32 -14 14 C-14.0825 14.804375 -14.165 15.60875 -14.25 16.4375 C-14.4975 17.283125 -14.745 18.12875 -15 19 C-16.99107248 20.01765927 -18.99218823 21.01577854 -21 22 C-22.34270821 23.99371825 -23.67653494 25.9934562 -25 28 C-27.75 29.375 -27.75 29.375 -30 30 C-23.82396647 17.44008567 -13.01167528 5.77945771 0 0 Z " fill="#288EE5" transform="translate(83,50)"/>
<path d="M0 0 C-0.66 0.66 -1.32 1.32 -2 2 C-5.63 2 -9.26 2 -13 2 C-13 11.9 -13 21.8 -13 32 C-11.02 32 -9.04 32 -7 32 C-7.66 33.98 -8.32 35.96 -9 38 C-5.96474514 40.02350324 -4.80573798 40.32124018 -1.3125 40.625 C-0.50425781 40.69976562 0.30398437 40.77453125 1.13671875 40.8515625 C1.75160156 40.90054688 2.36648437 40.94953125 3 41 C3 41.33 3 41.66 3 42 C-6.90694006 42.62460568 -6.90694006 42.62460568 -11.0625 40.25 C-14.97116795 35.71090173 -15.27922032 32.04935172 -15.1953125 26.171875 C-15.1924826 25.42286926 -15.18965271 24.67386353 -15.18673706 23.90216064 C-15.1755726 21.51794224 -15.15047531 19.13410421 -15.125 16.75 C-15.11496535 15.13021377 -15.10584035 13.51042164 -15.09765625 11.890625 C-15.07564555 7.92693754 -15.04114175 3.96353319 -15 0 C-12.87562788 -0.19448477 -10.75046809 -0.38038289 -8.625 -0.5625 C-7.44164062 -0.66691406 -6.25828125 -0.77132812 -5.0390625 -0.87890625 C-2 -1 -2 -1 0 0 Z " fill="#D6F4FC" transform="translate(146,119)"/>
<path d="M0 0 C0.99 0.33 1.98 0.66 3 1 C3 1.66 3 2.32 3 3 C3.66 3 4.32 3 5 3 C5.31111883 8.91125786 4.96464909 12.81186409 2 18 C-0.1875 18.9375 -0.1875 18.9375 -2 19 C-2.33 21.31 -2.66 23.62 -3 26 C-3.639375 26.12375 -4.27875 26.2475 -4.9375 26.375 C-5.618125 26.58125 -6.29875 26.7875 -7 27 C-7.33 27.66 -7.66 28.32 -8 29 C-8.99 29 -9.98 29 -11 29 C-11 29.66 -11 30.32 -11 31 C-12.98 31.99 -12.98 31.99 -15 33 C-15.99 32.34 -16.98 31.68 -18 31 C-17.52691406 30.67128906 -17.05382812 30.34257812 -16.56640625 30.00390625 C-9.38303759 24.83692178 -2.15113762 18.95419848 2 11 C2.44078194 6.76849335 1.80362003 3.83269257 0 0 Z " fill="#D2EEFC" transform="translate(180,147)"/>
<path d="M0 0 C2.5999298 2.51027705 4.99091227 4.9863684 7 8 C7 8.66 7 9.32 7 10 C7.99 10.33 8.98 10.66 10 11 C10 11.99 10 12.98 10 14 C9.01 14 8.02 14 7 14 C7 14.99 7 15.98 7 17 C6.34 17.33 5.68 17.66 5 18 C3 17 3 17 2.1484375 14.453125 C1.89320312 13.39609375 1.63796875 12.3390625 1.375 11.25 C1.11460938 10.20328125 0.85421875 9.1565625 0.5859375 8.078125 C0.05464356 5.28706084 -0.1152681 2.82930789 0 0 Z " fill="#217C9F" transform="translate(71,141)"/>
<path d="M0 0 C0.66 0 1.32 0 2 0 C1.98952637 0.67466309 1.97905273 1.34932617 1.96826172 2.04443359 C1.92622548 5.15458321 1.90052437 8.26467274 1.875 11.375 C1.85824219 12.43589844 1.84148438 13.49679688 1.82421875 14.58984375 C1.76523539 24.20413129 3.23142604 32.52985129 6.625 41.5 C9 47.8150289 9 47.8150289 9 50 C7.515 50.495 7.515 50.495 6 51 C5.80664062 50.28714844 5.61328125 49.57429688 5.4140625 48.83984375 C5.02347656 47.40318359 5.02347656 47.40318359 4.625 45.9375 C4.35171875 44.93203125 4.0784375 43.9265625 3.796875 42.890625 C3.17913797 40.64981421 2.5328456 38.41686565 1.875 36.1875 C0.42672103 30.91162662 -0.12368719 25.97430995 -0.09765625 20.5078125 C-0.09443359 19.30898437 -0.09121094 18.11015625 -0.08789062 16.875 C-0.07951172 15.6375 -0.07113281 14.4 -0.0625 13.125 C-0.05798828 11.86429688 -0.05347656 10.60359375 -0.04882812 9.3046875 C-0.0370796 6.20307614 -0.02065167 3.10156275 0 0 Z " fill="#B4E4F6" transform="translate(43,102)"/>
<path d="M0 0 C0.99 1.485 0.99 1.485 2 3 C2.33 2.34 2.66 1.68 3 1 C4.32 1 5.64 1 7 1 C6.80921875 1.68964844 6.6184375 2.37929687 6.421875 3.08984375 C4.88960849 9.58415935 4.85405967 13.35786172 8.15234375 19.22265625 C8.43207031 19.80917969 8.71179688 20.39570313 9 21 C8.67 21.66 8.34 22.32 8 23 C7.03576974 21.60823368 6.07888398 20.2113777 5.125 18.8125 C4.59132813 18.03519531 4.05765625 17.25789063 3.5078125 16.45703125 C0.98028702 12.33834336 -0.26978683 9.03785877 -0.125 4.1875 C-0.10695313 3.39730469 -0.08890625 2.60710937 -0.0703125 1.79296875 C-0.03550781 0.90544922 -0.03550781 0.90544922 0 0 Z " fill="#1978DA" transform="translate(109,149)"/>
<path d="M0 0 C0.66 0.33 1.32 0.66 2 1 C1.443125 1.52464844 0.88625 2.04929687 0.3125 2.58984375 C-7.08805506 10.10290725 -10.90937166 18.39203916 -15 28 C-15.96470453 24.5309615 -15.94772909 21.84547153 -15.5625 18.25 C-15.46066406 17.26515625 -15.35882813 16.2803125 -15.25390625 15.265625 C-15.17011719 14.51796875 -15.08632813 13.7703125 -15 13 C-14.01 13.33 -13.02 13.66 -12 14 C-11.1646875 12.6696875 -11.1646875 12.6696875 -10.3125 11.3125 C-8.21180145 8.15400288 -5.7552595 5.61396414 -3 3 C-2.401875 2.401875 -1.80375 1.80375 -1.1875 1.1875 C-0.795625 0.795625 -0.40375 0.40375 0 0 Z " fill="#1885E6" transform="translate(62,87)"/>
<path d="M0 0 C0.71414062 0.72574219 1.42828125 1.45148438 2.1640625 2.19921875 C3.96652307 3.97933477 5.81224167 5.71744113 7.7109375 7.39453125 C14.69823973 13.73637888 14.69823973 13.73637888 15.5625 17.35546875 C15.375 19.5 15.375 19.5 14 23 C10.6118258 25.46557277 7.32531243 25.20650625 3.25 25.125 C2.07953125 25.10695313 0.9090625 25.08890625 -0.296875 25.0703125 C-1.18890625 25.04710938 -2.0809375 25.02390625 -3 25 C-3 24.67 -3 24.34 -3 24 C1.62 23.67 6.24 23.34 11 23 C11 22.34 11 21.68 11 21 C11.66 21 12.32 21 13 21 C13 19.02 13 17.04 13 15 C12.01 14.67 11.02 14.34 10 14 C10 13.34 10 12.68 10 12 C9.01 11.67 8.02 11.34 7 11 C5.4296875 9.51171875 5.4296875 9.51171875 3.875 7.6875 C3.35679687 7.09324219 2.83859375 6.49898438 2.3046875 5.88671875 C0.93492875 3.90589997 0.42587129 2.35267921 0 0 Z " fill="#51C6D0" transform="translate(134,94)"/>
<path d="M0 0 C12.9712413 1.2428392 24.8890817 6.83857249 35 15 C36.828125 17.2421875 36.828125 17.2421875 38 19 C34.66135596 18.42437172 33.30897368 17.40936384 31 15 C30.01 14.67 29.02 14.34 28 14 C28 13.34 28 12.68 28 12 C27.34 11.7525 26.68 11.505 26 11.25 C23 10 23 10 19.625 8.1875 C13.40879128 5.00739322 6.63567531 3.10820934 0 1 C0 0.67 0 0.34 0 0 Z " fill="#4DCECB" transform="translate(133,43)"/>
<path d="M0 0 C0.67804688 0.44730469 1.35609375 0.89460937 2.0546875 1.35546875 C11.36834886 7.40547869 20.22046195 12.17897196 31 15 C31 15.33 31 15.66 31 16 C25.04335761 16.42492261 21.3519727 15.18841597 16.1875 12.5625 C15.52041016 12.23701172 14.85332031 11.91152344 14.16601562 11.57617188 C12.43765824 10.73030575 10.71817624 9.86635973 9 9 C8.34 8.67 7.68 8.34 7 8 C7 7.34 7 6.68 7 6 C5.68 6 4.36 6 3 6 C3 5.01 3 4.02 3 3 C2.01 2.67 1.02 2.34 0 2 C0 1.34 0 0.68 0 0 Z M11 11 C11.66 11 12.32 11 13 11 C13 11.66 13 12.32 13 13 C12.34 13 11.68 13 11 13 C11 12.34 11 11.68 11 11 Z " fill="#C3F2FB" transform="translate(69,173)"/>
<path d="M0 0 C0.81726563 0.165 1.63453125 0.33 2.4765625 0.5 C2.4765625 0.83 2.4765625 1.16 2.4765625 1.5 C0.8265625 1.5 -0.8234375 1.5 -2.5234375 1.5 C-2.60980469 2.08910156 -2.69617188 2.67820312 -2.78515625 3.28515625 C-3.72698767 6.11065052 -5.02903887 7.08427717 -7.3359375 8.9375 C-10.48539107 11.56110225 -13.09878149 14.16609798 -15.5234375 17.5 C-16.8434375 17.17 -18.1634375 16.84 -19.5234375 16.5 C-17.00671356 13.80881422 -14.45636681 11.15200377 -11.8984375 8.5 C-11.18558594 7.736875 -10.47273438 6.97375 -9.73828125 6.1875 C-4.31203487 0.61190739 -4.31203487 0.61190739 0 0 Z " fill="#40CACF" transform="translate(119.5234375,81.5)"/>
<path d="M0 0 C0.99 0.33 1.98 0.66 3 1 C1.81640625 2.5 1.81640625 2.5 0 4 C-2.41015625 4.1875 -2.41015625 4.1875 -5.0625 4 C-7.65959478 3.74925281 -7.65959478 3.74925281 -10 4 C-10.99 5.485 -10.99 5.485 -12 7 C-14.625 7.6875 -14.625 7.6875 -17 8 C-17.33 7.34 -17.66 6.68 -18 6 C-19.98 6.33 -21.96 6.66 -24 7 C-17.29387018 2.52924679 -10.99832416 0.49151639 -2.93359375 0.95703125 C-1.97646484 0.97830078 -1.97646484 0.97830078 -1 1 C-0.67 0.67 -0.34 0.34 0 0 Z " fill="#3393C9" transform="translate(108,43)"/>
<path d="M0 0 C0 0.66 0 1.32 0 2 C-0.57443848 2.01981934 -1.14887695 2.03963867 -1.74072266 2.06005859 C-4.36923833 2.15592024 -6.99702491 2.26534874 -9.625 2.375 C-10.98044922 2.42140625 -10.98044922 2.42140625 -12.36328125 2.46875 C-17.29936083 2.68492867 -21.32738356 3.27407861 -26 5 C-27.32 5 -28.64 5 -30 5 C-30 4.34 -30 3.68 -30 3 C-24.03397669 0.50511752 -18.58794855 -0.38023262 -12.1875 -0.75 C-11.44636963 -0.79439209 -10.70523926 -0.83878418 -9.94165039 -0.88452148 C-6.46394856 -1.04613722 -3.31826117 -1.14963379 0 0 Z " fill="#458CC6" transform="translate(128,62)"/>
<path d="M0 0 C0.88429688 -0.00773437 1.76859375 -0.01546875 2.6796875 -0.0234375 C3.53304687 -0.02085938 4.38640625 -0.01828125 5.265625 -0.015625 C6.03165039 -0.01336914 6.79767578 -0.01111328 7.58691406 -0.00878906 C10.00695911 0.28074229 11.64672316 1.0472744 13.75 2.25 C13.04915283 2.27505615 12.34830566 2.3001123 11.6262207 2.32592773 C8.43814512 2.44226545 5.25033758 2.56482044 2.0625 2.6875 C0.40831055 2.74647461 0.40831055 2.74647461 -1.27929688 2.80664062 C-2.34599609 2.84853516 -3.41269531 2.89042969 -4.51171875 2.93359375 C-5.49100342 2.97025146 -6.47028809 3.00690918 -7.47924805 3.04467773 C-10.2565945 3.17518996 -10.2565945 3.17518996 -12.92114258 3.89477539 C-15.25 4.25 -15.25 4.25 -18.25 2.25 C-12.0408053 0.43056155 -6.45351557 -0.05744969 0 0 Z " fill="#62C3CD" transform="translate(118.25,40.75)"/>
<path d="M0 0 C1.10558129 3.31674386 0.84966948 3.79826534 0 7 C-0.17538312 9.18532935 -0.31765107 11.3734226 -0.4375 13.5625 C-0.84425019 19.82776505 -1.70934658 25.85999828 -3 32 C-3.33 32 -3.66 32 -4 32 C-4.25112851 20.75502355 -3.94145676 10.69823977 0 0 Z " fill="#3581D8" transform="translate(48,90)"/>
<path d="M0 0 C0.33 1.32 0.66 2.64 1 4 C2.32 4.33 3.64 4.66 5 5 C5 5.66 5 6.32 5 7 C5.66 7 6.32 7 7 7 C7 7.66 7 8.32 7 9 C0.27954125 6.80962826 -6.36724003 4.44234339 -13 2 C-13 1.67 -13 1.34 -13 1 C-8.61414671 0.29826347 -4.44209357 -0.10834375 0 0 Z " fill="#2DB5CF" transform="translate(124,46)"/>
<path d="M0 0 C5.27201114 0.19894382 8.26532489 1.26532489 12 5 C14.29409636 8.27728051 14.54048547 11.06217725 14 15 C12.54642541 17.51716576 10.85237598 19.76391757 9 22 C8.67 21.01 8.34 20.02 8 19 C8.49628906 18.59652344 8.99257812 18.19304687 9.50390625 17.77734375 C11.18980251 16.11339041 11.18980251 16.11339041 11.21484375 13.87890625 C10.78168343 10.26110248 10.38981763 7.62370822 8.4375 4.5 C4.95935451 2.35960278 2.06139684 2.27075979 -2 2 C-1.34 1.34 -0.68 0.68 0 0 Z " fill="#4EA6DE" transform="translate(169,143)"/>
<path d="M0 0 C0.33 0.99 0.66 1.98 1 3 C-0.33772683 5.49491973 -1.71473415 7.81927076 -3.25 10.1875 C-6.55936109 15.32901525 -9.01349852 20.20173757 -11 26 C-11.33 26 -11.66 26 -12 26 C-12.59740495 20.90214442 -10.53179793 17.38558326 -8.25 13 C-7.90195312 12.30132812 -7.55390625 11.60265625 -7.1953125 10.8828125 C-5.15604775 6.87981132 -2.96173137 3.41532987 0 0 Z " fill="#22A0D5" transform="translate(57,95)"/>
<path d="M0 0 C0.78840468 2.77377219 1.11128001 5.19450453 1.0625 8.07421875 C1.05476563 8.82380859 1.04703125 9.57339844 1.0390625 10.34570312 C1.02617188 11.11849609 1.01328125 11.89128906 1 12.6875 C0.9543669 15.464274 0.95276414 18.22194121 1 21 C1.33 21.33 1.66 21.66 2 22 C2.12375 23.258125 2.2475 24.51625 2.375 25.8125 C2.76975021 29.44937901 3.72008816 31.12532855 6 34 C6.1875 36.75 6.1875 36.75 6 39 C2.56163057 35.23416682 1.45736821 30.76717434 0 26 C-0.33 25.01 -0.66 24.02 -1 23 C-1.09230479 21.481325 -1.1306756 19.95897605 -1.1328125 18.4375 C-1.13410156 17.55835937 -1.13539062 16.67921875 -1.13671875 15.7734375 C-1.13285156 14.85820313 -1.12898438 13.94296875 -1.125 13 C-1.12886719 12.08476563 -1.13273437 11.16953125 -1.13671875 10.2265625 C-1.13542969 9.34742187 -1.13414063 8.46828125 -1.1328125 7.5625 C-1.13168457 6.75941406 -1.13055664 5.95632812 -1.12939453 5.12890625 C-1 3 -1 3 0 0 Z " fill="#BCEEF7" transform="translate(67,103)"/>
<path d="M0 0 C0.66 1.32 1.32 2.64 2 4 C4.84737611 5.91232675 7.11035336 6.25134608 10.5 6.1875 C11.2528125 6.18105469 12.005625 6.17460937 12.78125 6.16796875 C14.95990143 6.00303563 16.90204811 5.59600906 19 5 C17.25586336 7.14840673 16.29612041 7.93377499 13.5546875 8.546875 C12.67039062 8.61390625 11.78609375 8.6809375 10.875 8.75 C9.98554687 8.82734375 9.09609375 8.9046875 8.1796875 8.984375 C7.46039063 8.98953125 6.74109375 8.9946875 6 9 C5.67 8.67 5.34 8.34 5 8 C3.35 9.65 1.7 11.3 0 13 C0 8.71 0 4.42 0 0 Z " fill="#218BD3" transform="translate(109,132)"/>
<path d="M0 0 C0.99 0.33 1.98 0.66 3 1 C2.4225 1.66386719 1.845 2.32773438 1.25 3.01171875 C0.5075 3.89472656 -0.235 4.77773437 -1 5.6875 C-1.7425 6.55761719 -2.485 7.42773438 -3.25 8.32421875 C-5.18489663 11.28271025 -5.45772244 12.54991709 -5 16 C-4.67 16.99 -4.34 17.98 -4 19 C-3.34 19.33 -2.68 19.66 -2 20 C-2.99 20 -3.98 20 -5 20 C-5 19.34 -5 18.68 -5 18 C-5.66 18 -6.32 18 -7 18 C-8.7488595 14.502281 -7.97802169 10.69547795 -7 7 C-4.5625 4.4375 -4.5625 4.4375 -2 3 C-1.34 3 -0.68 3 0 3 C0 2.01 0 1.02 0 0 Z " fill="#CBF3FC" transform="translate(96,99)"/>
<path d="M0 0 C1.66926454 0.97473126 3.33535642 1.95489789 5 2.9375 C5.928125 3.48277344 6.85625 4.02804688 7.8125 4.58984375 C8.8953125 5.28787109 8.8953125 5.28787109 10 6 C10 6.33 10 6.66 10 7 C2.70968976 7.2494783 -3.90673679 6.72330907 -11 5 C-6.61991557 2.41535558 -3.88874887 3.18520852 1 4 C0.67 2.68 0.34 1.36 0 0 Z " fill="#51C0CE" transform="translate(111,184)"/>
<path d="M0 0 C1.17741944 2.35483888 1.0748346 3.63793406 0.9921875 6.25390625 C0.97542969 7.10919922 0.95867187 7.96449219 0.94140625 8.84570312 C0.89779822 10.6297846 0.84597506 12.41368792 0.78515625 14.19726562 C0.69587203 19.63954453 1.33598241 24.00354365 3.28100586 29.09912109 C4.13628018 31.36029795 4.61556308 33.61649111 5 36 C4.01 35.67 3.02 35.34 2 35 C-1.31494209 27.67649087 -1.41262251 19.76219173 -1.25 11.875 C-1.24484375 10.83601563 -1.2396875 9.79703125 -1.234375 8.7265625 C-1.15509259 1.15509259 -1.15509259 1.15509259 0 0 Z " fill="#40ADC3" transform="translate(66,104)"/>
<path d="M0 0 C3.73096361 1.24365454 4.11276852 2.81121422 5.8828125 6.15234375 C7.50813939 8.84038437 9.75926147 10.8215042 12 13 C12 13.66 12 14.32 12 15 C11.34 15 10.68 15 10 15 C10 14.34 10 13.68 10 13 C9.4225 12.773125 8.845 12.54625 8.25 12.3125 C5.41626105 10.65948561 3.96855887 8.60357787 2 6 C1.01769502 4.9826127 0.02530403 3.97403883 -1 3 C-0.67 2.01 -0.34 1.02 0 0 Z " fill="#2FC9DC" transform="translate(144,62)"/>
<path d="M0 0 C-6.15034169 7.48291572 -6.15034169 7.48291572 -10 10 C-10.3125 6.6875 -10.3125 6.6875 -10 3 C-6.78917035 0.15612231 -4.21520395 -0.3613032 0 0 Z " fill="#2E96E5" transform="translate(177,165)"/>
<path d="M0 0 C0 2 0 4 0 6 C0.99 6.66 1.98 7.32 3 8 C3 8.66 3 9.32 3 10 C-1.25177923 9.52758009 -3.29969203 7.15035929 -6 4 C-6 3.01 -6 2.02 -6 1 C-4.02 0.67 -2.04 0.34 0 0 Z " fill="#E4F2F7" transform="translate(89,151)"/>
<path d="M0 0 C-0.20921643 3.66128752 -1.14858351 5.47948819 -3.8125 7.875 C-7 10 -7 10 -9.19921875 9.6328125 C-10.09060547 9.31957031 -10.09060547 9.31957031 -11 9 C-9.54782324 7.49403892 -8.08807139 5.99537896 -6.625 4.5 C-5.40683594 3.24703125 -5.40683594 3.24703125 -4.1640625 1.96875 C-2 0 -2 0 0 0 Z " fill="#31A1E8" transform="translate(167,145)"/>
<path d="M0 0 C0 0.99 0 1.98 0 3 C-2 5 -2 5 -4.3125 5.8125 C-7.65502989 7.28943181 -9.49458974 9.36610716 -12 12 C-13.31175986 13.02813611 -14.6369893 14.04084432 -16 15 C-16.66 14.34 -17.32 13.68 -18 13 C-15.75340093 11.20392214 -13.50296211 9.41306517 -11.25 7.625 C-10.29867187 6.86316406 -10.29867187 6.86316406 -9.328125 6.0859375 C-8.709375 5.59609375 -8.090625 5.10625 -7.453125 4.6015625 C-6.88754883 4.15119629 -6.32197266 3.70083008 -5.73925781 3.23681641 C-3.90362964 1.93146936 -2.0363688 0.95576697 0 0 Z " fill="#3D8ED4" transform="translate(83,50)"/>
<path d="M0 0 C-1.08000025 3.24000075 -1.49783862 3.6336358 -4.16015625 5.48046875 C-4.78857422 5.92197266 -5.41699219 6.36347656 -6.06445312 6.81835938 C-7.05348633 7.49608398 -7.05348633 7.49608398 -8.0625 8.1875 C-8.72572266 8.65091797 -9.38894531 9.11433594 -10.07226562 9.59179688 C-11.71007505 10.73472863 -13.35442897 11.8682718 -15 13 C-15.33 12.01 -15.66 11.02 -16 10 C-15.38511719 9.60167969 -14.77023438 9.20335937 -14.13671875 8.79296875 C-13.32847656 8.26316406 -12.52023438 7.73335937 -11.6875 7.1875 C-10.88699219 6.66542969 -10.08648437 6.14335937 -9.26171875 5.60546875 C-7.27123094 4.19253181 -5.69697984 2.73679168 -4 1 C-2 0 -2 0 0 0 Z " fill="#E3E9F1" transform="translate(195,199)"/>
<path d="M0 0 C0.33 0.66 0.66 1.32 1 2 C2.32 2 3.64 2 5 2 C5.33 4.97 5.66 7.94 6 11 C3.34701621 9.60369274 1.37634575 8.53030537 -0.375 6.0625 C-1.10948624 3.6386954 -0.84172676 2.35683494 0 0 Z " fill="#207CE1" transform="translate(118,166)"/>
<path d="M0 0 C-0.33 1.32 -0.66 2.64 -1 4 C-2.0209375 3.2265625 -2.0209375 3.2265625 -3.0625 2.4375 C-6.93286565 0.54349128 -8.8653328 0.91192968 -13 2 C-15.17864864 3.18487908 -17.01146282 4.49647189 -19 6 C-19.33 5.01 -19.66 4.02 -20 3 C-13.15438198 -1.56374535 -8.11870786 -2.02967697 0 0 Z " fill="#CDF2FE" transform="translate(180,143)"/>
<path d="M0 0 C2.64 0 5.28 0 8 0 C8 0.66 8 1.32 8 2 C9.010625 1.87625 10.02125 1.7525 11.0625 1.625 C16.26594839 2.12056651 18.44744474 4.37185846 22 8 C18.45776979 8 16.48332734 6.70301303 13.40625 5.08984375 C9.1180036 3.14760228 4.56268049 2.107121 0 1 C0 0.67 0 0.34 0 0 Z " fill="#3C83A7" transform="translate(129,64)"/>
<path d="M0 0 C0.33 0 0.66 0 1 0 C1.02578125 1.01320312 1.0515625 2.02640625 1.078125 3.0703125 C1.13444181 4.42191597 1.19178833 5.77347681 1.25 7.125 C1.26417969 7.79015625 1.27835938 8.4553125 1.29296875 9.140625 C1.58442774 15.08638837 3.76637482 18.60683017 7.75 22.875 C8.36875 23.431875 8.36875 23.431875 9 24 C6.1875 23.875 6.1875 23.875 3 23 C-0.3274547 18.07043748 -0.37622693 13.83519942 -0.1875 8.125 C-0.17396484 7.34125 -0.16042969 6.5575 -0.14648438 5.75 C-0.11141789 3.83303218 -0.05762072 1.91642249 0 0 Z " fill="#338CD1" transform="translate(129,137)"/>
<path d="M0 0 C0.66 0 1.32 0 2 0 C2 0.66 2 1.32 2 2 C2.969375 2.268125 3.93875 2.53625 4.9375 2.8125 C6.4534375 3.4003125 6.4534375 3.4003125 8 4 C8.33 4.99 8.66 5.98 9 7 C8.01 8.485 8.01 8.485 7 10 C6.34 10 5.68 10 5 10 C3.7109375 8.3203125 3.7109375 8.3203125 2.375 6.125 C1.92898437 5.40570313 1.48296875 4.68640625 1.0234375 3.9453125 C0 2 0 2 0 0 Z " fill="#D7F0FA" transform="translate(73,141)"/>
<path d="M0 0 C0 0.99 0 1.98 0 3 C0.28195662 4.71363925 0.59738637 6.42194928 0.9375 8.125 C1.11152344 9.01445312 1.28554688 9.90390625 1.46484375 10.8203125 C1.7916928 12.96439639 1.7916928 12.96439639 3 14 C3.14115161 16.67058851 3.04247107 19.32432238 3 22 C-1.6001787 17.3998213 -1.46503004 10.76468225 -2.046875 4.609375 C-2 2 -2 2 0 0 Z " fill="#3DB5CC" transform="translate(46,120)"/>
<path d="M0 0 C1.58323688 -0.027193 3.16661062 -0.04648306 4.75 -0.0625 C6.07257813 -0.07990234 6.07257813 -0.07990234 7.421875 -0.09765625 C9.7818838 -0.00826198 11.74498524 0.33087179 14 1 C14.33 2.65 14.66 4.3 15 6 C14.13375 5.34 13.2675 4.68 12.375 4 C8.67199404 1.8056261 7.19754908 1.21295955 3 2 C0.73918149 3.49172728 -1.0230724 5.11721181 -3 7 C-3 5.68 -3 4.36 -3 3 C-2.34 3 -1.68 3 -1 3 C-0.67 2.01 -0.34 1.02 0 0 Z " fill="#CEFAFB" transform="translate(113,81)"/>
<path d="M0 0 C0 0.66 0 1.32 0 2 C0.66 2.33 1.32 2.66 2 3 C-3.21979128 3.1799928 -7.07262981 2.97094808 -12 1 C-12 0.34 -12 -0.32 -12 -1 C-7.48281619 -2.36884358 -4.41225737 -1.47075246 0 0 Z " fill="#34B0C6" transform="translate(102,185)"/>
<path d="M0 0 C2 2 2 2 2 4.4375 C1 7 1 7 -2.0625 8.8125 C-3.031875 9.204375 -4.00125 9.59625 -5 10 C-4.64766839 4.5388601 -4.64766839 4.5388601 -4 2 C-1.9375 0.5 -1.9375 0.5 0 0 Z " fill="#1E89ED" transform="translate(57,78)"/>
<path d="M0 0 C0.99 0.33 1.98 0.66 3 1 C3.33 1.99 3.66 2.98 4 4 C0.77208445 6.1519437 -0.28400809 6.20086443 -4 6 C-4 5.67 -4 5.34 -4 5 C-6.31 4.67 -8.62 4.34 -11 4 C-11 3.67 -11 3.34 -11 3 C-10.28972656 2.86722656 -9.57945312 2.73445312 -8.84765625 2.59765625 C-7.92855469 2.42105469 -7.00945312 2.24445313 -6.0625 2.0625 C-4.68771484 1.80146484 -4.68771484 1.80146484 -3.28515625 1.53515625 C-1.04710156 1.22285012 -1.04710156 1.22285012 0 0 Z " fill="#3499E8" transform="translate(152,158)"/>
<path d="M0 0 C2.0625 0.4375 2.0625 0.4375 4 1 C4 3.64 4 6.28 4 9 C2.35 8.67 0.7 8.34 -1 8 C-1.04241723 5.66705225 -1.04092937 3.33297433 -1 1 C-0.67 0.67 -0.34 0.34 0 0 Z " fill="#E2EEFA" transform="translate(107,169)"/>
<path d="M0 0 C3.91939465 3.80411834 7.49102731 7.81576108 11 12 C9.02 12 7.04 12 5 12 C3 6.25 3 6.25 3 4 C2.01 4 1.02 4 0 4 C0 2.68 0 1.36 0 0 Z " fill="#C2F1F9" transform="translate(58,161)"/>
<path d="M0 0 C-3.54039134 2.9156164 -7.1626772 5.50127818 -11 8 C-11.33 6.35 -11.66 4.7 -12 3 C-4.71428571 -0.42857143 -4.71428571 -0.42857143 0 0 Z " fill="#3590DB" transform="translate(94,69)"/>
<path d="M0 0 C3.66881155 0.70554068 6.70450534 2.27735506 10 4 C10 4.66 10 5.32 10 6 C12.475 6.99 12.475 6.99 15 8 C13.32421875 8.70703125 13.32421875 8.70703125 11 9 C8.45703125 7.63671875 8.45703125 7.63671875 5.8125 5.6875 C4.93207031 5.05199219 4.05164062 4.41648438 3.14453125 3.76171875 C1 2 1 2 0 0 Z " fill="#E3E9F0" transform="translate(49,206)"/>
<path d="M0 0 C4.30120268 1.91164564 6.199135 4.26551333 9 8 C9 8.66 9 9.32 9 10 C9.61875 10.268125 10.2375 10.53625 10.875 10.8125 C13 12 13 12 15 15 C7.66492376 11.89669851 3.77140805 6.72512143 0 0 Z " fill="#B9ECF8" transform="translate(102,173)"/>
<path d="M0 0 C2.375 0.1875 2.375 0.1875 5 1 C6.3125 3.5625 6.3125 3.5625 7 6 C4.69 6 2.38 6 0 6 C-1 3 -1 3 0 0 Z " fill="#28BCD1" transform="translate(106,183)"/>
<path d="M0 0 C1.5 1.3125 1.5 1.3125 3 3 C3 3.99 3 4.98 3 6 C3.66 6 4.32 6 5 6 C5.45375 7.134375 5.9075 8.26875 6.375 9.4375 C7.57095806 13.04721692 7.57095806 13.04721692 10 14 C9.67 15.32 9.34 16.64 9 18 C4.79515783 12.24385683 1.85913191 6.89835786 0 0 Z " fill="#4DC2CD" transform="translate(49,143)"/>
<path d="M0 0 C0.66 0.33 1.32 0.66 2 1 C-0.22324926 2.1793149 -2.45246639 3.34340918 -4.6875 4.5 C-5.31333984 4.83386719 -5.93917969 5.16773438 -6.58398438 5.51171875 C-10.20481317 7.3695262 -12.91404255 8.43750214 -17 8 C-13.84023776 5.32635503 -10.92708165 4.23202562 -7 3 C-5.74558019 2.44742676 -4.49555244 1.88478085 -3.25 1.3125 C-2.1775 0.879375 -1.105 0.44625 0 0 Z " fill="#DEE8EF" transform="translate(170,215)"/>
<path d="M0 0 C0.66 0.33 1.32 0.66 2 1 C1.2169216 3.14898232 0.42328757 5.29412095 -0.375 7.4375 C-0.81585938 8.63246094 -1.25671875 9.82742187 -1.7109375 11.05859375 C-3 14 -3 14 -5 15 C-4.33333333 10.33333333 -3.66666667 5.66666667 -3 1 C-2.01 0.67 -1.02 0.34 0 0 Z " fill="#3397B6" transform="translate(71,89)"/>
<path d="M0 0 C0.66 0 1.32 0 2 0 C2.24234375 0.65226563 2.4846875 1.30453125 2.734375 1.9765625 C4.70376741 7.11213194 6.7353687 11.56942895 10 16 C9.34 16.33 8.68 16.66 8 17 C7.731875 16.401875 7.46375 15.80375 7.1875 15.1875 C6.00150961 13.00278087 4.77943518 11.70529205 3 10 C0.70366176 6.55549263 0.45983515 4.06187717 0 0 Z " fill="#4CB2C6" transform="translate(97,164)"/>
<path d="M0 0 C1 2 1 2 0.3125 4.9375 C-1.06192878 8.14450048 -2.06205603 9.23723362 -5 11 C-5.66 10.67 -6.32 10.34 -7 10 C-3.535 5.05 -3.535 5.05 0 0 Z " fill="#3F94E2" transform="translate(60,69)"/>
<path d="M0 0 C1.15430958 2.30861917 2.30293767 4.61904655 3.4375 6.9375 C4.93926293 10.0004938 4.93926293 10.0004938 6.75 12.75 C7.1625 13.4925 7.575 14.235 8 15 C7.67 15.66 7.34 16.32 7 17 C3.24751589 11.79608336 0.34321548 7.31311276 -1 1 C-0.67 0.67 -0.34 0.34 0 0 Z " fill="#367FCA" transform="translate(110,155)"/>
<path d="M0 0 C1.1446875 0.12375 1.1446875 0.12375 2.3125 0.25 C1.37975891 1.37894876 0.44109878 2.50300876 -0.5 3.625 C-1.02207031 4.25148438 -1.54414062 4.87796875 -2.08203125 5.5234375 C-3.6875 7.25 -3.6875 7.25 -6.6875 9.25 C-6.04078163 4.59362773 -5.23074478 0.48658091 0 0 Z " fill="#DAFCFB" transform="translate(106.6875,88.75)"/>
<path d="M0 0 C3.96 0 7.92 0 12 0 C11.01 1.485 11.01 1.485 10 3 C6.28359861 3.27028374 3.542799 3.180933 0 2 C0 1.34 0 0.68 0 0 Z " fill="#DBFBFD" transform="translate(165,87)"/>
<path d="M0 0 C0.33 1.32 0.66 2.64 1 4 C0.01 4.495 0.01 4.495 -1 5 C-1.65213292 7.02463255 -1.65213292 7.02463255 -2 9 C-3.65 9 -5.3 9 -7 9 C-5.44499019 5.18315774 -2.96404505 2.80804268 0 0 Z " fill="#D9F3F9" transform="translate(83,77)"/>
<path d="M0 0 C4.31392226 0.4793247 6.16569547 1.7457985 9 5 C6.6875 5.625 6.6875 5.625 4 6 C1 4 1 4 0.3125 1.875 C0.209375 1.25625 0.10625 0.6375 0 0 Z " fill="#1070B1" transform="translate(124,53)"/>
<path d="M0 0 C0.33 0.66 0.66 1.32 1 2 C1.66 2 2.32 2 3 2 C2.34 6.62 1.68 11.24 1 16 C0.67 16 0.34 16 0 16 C0 10.72 0 5.44 0 0 Z " fill="#2881DD" transform="translate(44,106)"/>
<path d="M0 0 C0.33 0.66 0.66 1.32 1 2 C-0.87577357 6.06417607 -2.93582393 8.12422643 -7 10 C-7.66 9.67 -8.32 9.34 -9 9 C-6.03 6.03 -3.06 3.06 0 0 Z " fill="#BFE7FE" transform="translate(178,164)"/>
<path d="M0 0 C0.66 0.33 1.32 0.66 2 1 C-0.31 4.63 -2.62 8.26 -5 12 C-5.33 10.68 -5.66 9.36 -6 8 C-5.34 8 -4.68 8 -4 8 C-4 6.68 -4 5.36 -4 4 C-3.34 4 -2.68 4 -2 4 C-1.34 2.68 -0.68 1.36 0 0 Z " fill="#D4F4FE" transform="translate(57,70)"/>
<path d="M0 0 C4.21912747 0.4794463 6.79663178 1.16625119 10 4 C6.7807732 5.0730756 6.09793558 4.79946725 3 4 C2.01 4.495 2.01 4.495 1 5 C0.67 3.35 0.34 1.7 0 0 Z " fill="#1175B4" transform="translate(114,49)"/>
<path d="M0 0 C4.95 0.99 4.95 0.99 10 2 C10.33 2.99 10.66 3.98 11 5 C6.62886504 4.49172849 3.61004338 3.54826592 0 1 C0 0.67 0 0.34 0 0 Z " fill="#3A88DB" transform="translate(124,177)"/>
<path d="M0 0 C0.66 0 1.32 0 2 0 C3.5078125 1.8984375 3.5078125 1.8984375 5.125 4.375 C5.66382813 5.18710938 6.20265625 5.99921875 6.7578125 6.8359375 C8 9 8 9 8 11 C7.34 11 6.68 11 6 11 C4.4921875 9.1015625 4.4921875 9.1015625 2.875 6.625 C2.33617187 5.81289062 1.79734375 5.00078125 1.2421875 4.1640625 C0 2 0 2 0 0 Z " fill="#E4E9EF" transform="translate(21,176)"/>
<path d="M0 0 C0.33 0.66 0.66 1.32 1 2 C0.04956626 3.33897583 -0.91059147 4.67105427 -1.875 6 C-2.40867188 6.7425 -2.94234375 7.485 -3.4921875 8.25 C-3.98976562 8.8275 -4.48734375 9.405 -5 10 C-5.66 10 -6.32 10 -7 10 C-6.42424336 6.64749299 -5.40693737 5.06181371 -2.9375 2.75 C-2.38964844 2.22921875 -1.84179688 1.7084375 -1.27734375 1.171875 C-0.64505859 0.59179688 -0.64505859 0.59179688 0 0 Z " fill="#E4EAF3" transform="translate(212,179)"/>
<path d="M0 0 C2.97 0.495 2.97 0.495 6 1 C6 1.66 6 2.32 6 3 C5.01 3 4.02 3 3 3 C3 3.99 3 4.98 3 6 C2.01 6 1.02 6 0 6 C0 4.02 0 2.04 0 0 Z " fill="#127CA7" transform="translate(75,152)"/>
<path d="M0 0 C0.99 1.485 0.99 1.485 2 3 C2.33 2.34 2.66 1.68 3 1 C4.32 1 5.64 1 7 1 C5.9024777 3.99324263 5.32317108 4.84610901 2.375 6.25 C1.59125 6.4975 0.8075 6.745 0 7 C0 4.69 0 2.38 0 0 Z " fill="#1E76C4" transform="translate(109,149)"/>
<path d="M0 0 C0.33 0.99 0.66 1.98 1 3 C-0.9375 5.6875 -0.9375 5.6875 -3 8 C-4.32 7.67 -5.64 7.34 -7 7 C-4.69 4.69 -2.38 2.38 0 0 Z " fill="#4EC3D6" transform="translate(107,91)"/>
<path d="M0 0 C2.31 0 4.62 0 7 0 C-0.71428571 6 -0.71428571 6 -4 6 C-3.67 5.01 -3.34 4.02 -3 3 C-2.34 3 -1.68 3 -1 3 C-0.67 2.01 -0.34 1.02 0 0 Z " fill="#D9F3FD" transform="translate(80,48)"/>
<path d="M0 0 C0.33 0.66 0.66 1.32 1 2 C1.639375 2.268125 2.27875 2.53625 2.9375 2.8125 C5.68156708 4.39241741 6.06890124 6.0515206 7 9 C6.01 8.67 5.02 8.34 4 8 C4 7.34 4 6.68 4 6 C3.34 6 2.68 6 2 6 C0.375 3.5 0.375 3.5 -1 1 C-0.67 0.67 -0.34 0.34 0 0 Z " fill="#E2E9F1" transform="translate(30,187)"/>
<path d="M0 0 C1.98 0.99 1.98 0.99 4 2 C3.6875 3.875 3.6875 3.875 3 6 C2.01 6.66 1.02 7.32 0 8 C0 5.36 0 2.72 0 0 Z " fill="#1668B8" transform="translate(109,137)"/>
<path d="M0 0 C2.00993705 3.01490557 2.72623341 5.2149927 3.625 8.6875 C3.88539062 9.68136719 4.14578125 10.67523438 4.4140625 11.69921875 C4.60742188 12.45847656 4.80078125 13.21773437 5 14 C4.01 13.67 3.02 13.34 2 13 C1.26953125 11.07421875 1.26953125 11.07421875 0.8125 8.6875 C0.65394531 7.90761719 0.49539062 7.12773437 0.33203125 6.32421875 C0 4 0 4 0 0 Z " fill="#4FBAD0" transform="translate(66,126)"/>
<path d="M0 0 C1.51400391 0.01740234 1.51400391 0.01740234 3.05859375 0.03515625 C4.07050781 0.04417969 5.08242187 0.05320312 6.125 0.0625 C7.29869141 0.07990234 7.29869141 0.07990234 8.49609375 0.09765625 C8.16609375 1.08765625 7.83609375 2.07765625 7.49609375 3.09765625 C4.52609375 2.76765625 1.55609375 2.43765625 -1.50390625 2.09765625 C-2.16390625 3.41765625 -2.82390625 4.73765625 -3.50390625 6.09765625 C-3.54662725 4.4315372 -3.54454457 2.7638274 -3.50390625 1.09765625 C-2.50390625 0.09765625 -2.50390625 0.09765625 0 0 Z " fill="#E2F7FE" transform="translate(135.50390625,119.90234375)"/>
<path d="M0 0 C-1.65167557 3.5786304 -3.78286492 6.74820188 -6 10 C-6.33 8.68 -6.66 7.36 -7 6 C-6.34 6 -5.68 6 -5 6 C-4.87625 5.195625 -4.7525 4.39125 -4.625 3.5625 C-4.41875 2.716875 -4.2125 1.87125 -4 1 C-2 0 -2 0 0 0 Z " fill="#3185A8" transform="translate(80,79)"/>
<path d="M0 0 C1.9375 0.375 1.9375 0.375 4 1 C5.32229189 3.64458379 5.09677194 5.67761301 5.0625 8.625 C5.05347656 9.62789062 5.04445312 10.63078125 5.03515625 11.6640625 C5.02355469 12.43492188 5.01195312 13.20578125 5 14 C4.67 14 4.34 14 4 14 C3.87882813 13.24074219 3.75765625 12.48148438 3.6328125 11.69921875 C3.46523437 10.70535156 3.29765625 9.71148437 3.125 8.6875 C2.96257812 7.70136719 2.80015625 6.71523437 2.6328125 5.69921875 C2.11914546 2.79940173 2.11914546 2.79940173 0 0 Z " fill="#BCF4F5" transform="translate(176,66)"/>
<path d="M0 0 C4.29 0 8.58 0 13 0 C9.74076883 2.17282078 7.87726431 2.76261647 4 3 C2.68 2.01 1.36 1.02 0 0 Z " fill="#B4DDFE" transform="translate(139,183)"/>
<path d="M0 0 C1.65 1.65 3.3 3.3 5 5 C4.01 6.32 3.02 7.64 2 9 C0 3.375 0 3.375 0 0 Z " fill="#25D9D5" transform="translate(172,65)"/>
<path d="M0 0 C3.3 0.33 6.6 0.66 10 1 C7.07735566 2.46132217 5.07536854 3.34099246 2 4 C1.34 2.68 0.68 1.36 0 0 Z " fill="#D0EEFE" transform="translate(134,183)"/>
<path d="M0 0 C6.625 0.75 6.625 0.75 10 3 C10 3.66 10 4.32 10 5 C6.08788267 3.84414715 3.1254959 2.64465038 0 0 Z " fill="#47CDD1" transform="translate(80,180)"/>
<path d="M0 0 C0.804375 0.309375 1.60875 0.61875 2.4375 0.9375 C6.62249087 2.18565517 10.66306101 2.6337696 15 3 C15 3.33 15 3.66 15 4 C4.84682713 4.63019694 4.84682713 4.63019694 1.3125 2 C0.879375 1.34 0.44625 0.68 0 0 Z " fill="#BDEAFD" transform="translate(134,157)"/>
<path d="M0 0 C1.32 0.33 2.64 0.66 4 1 C4 1.66 4 2.32 4 3 C5.32 3.33 6.64 3.66 8 4 C8 4.66 8 5.32 8 6 C4.65750371 5.40312566 2.53563658 4.26396123 0 2 C0 1.34 0 0.68 0 0 Z " fill="#BFE7F8" transform="translate(84,155)"/>
<path d="M0 0 C0.33 0.99 0.66 1.98 1 3 C-0.4375 5.1875 -0.4375 5.1875 -2 7 C-3.32 6.67 -4.64 6.34 -6 6 C-4.02 4.02 -2.04 2.04 0 0 Z " fill="#4CA7E0" transform="translate(162,148)"/>
<path d="M0 0 C2.3125 0.1875 2.3125 0.1875 4 1 C1.06171403 3.50298434 -1.17902761 4.46930939 -5 5 C-2.75 2.4375 -2.75 2.4375 0 0 Z " fill="#D4F1FC" transform="translate(89,72)"/>
<path d="M0 0 C2.49361571 1.20381448 4.68143083 2.45428722 7 4 C6.67 4.99 6.34 5.98 6 7 C3.95880212 5.38405168 1.95927063 3.7143618 0 2 C0 1.34 0 0.68 0 0 Z " fill="#E0E8F0" transform="translate(40,198)"/>
<path d="M0 0 C2.9719385 1.12451727 5.33440687 2.22293791 8 4 C7.67 4.66 7.34 5.32 7 6 C4.0625 5.25 4.0625 5.25 1 4 C0.125 1.875 0.125 1.875 0 0 Z " fill="#359DBE" transform="translate(90,161)"/>
<path d="M0 0 C0.33 0 0.66 0 1 0 C1.3125 2.25 1.3125 2.25 1 5 C-1.5 7.3125 -1.5 7.3125 -4 9 C-4 7.02 -4 5.04 -4 3 C-3.01 3.33 -2.02 3.66 -1 4 C-0.67 2.68 -0.34 1.36 0 0 Z " fill="#1D9FF7" transform="translate(180,154)"/>
<path d="M0 0 C1.32 0.66 2.64 1.32 4 2 C-0.75 6 -0.75 6 -3 6 C-3 5.34 -3 4.68 -3 4 C-2.34 4 -1.68 4 -1 4 C-0.67 2.68 -0.34 1.36 0 0 Z " fill="#C0E6FC" transform="translate(152,154)"/>
<path d="M0 0 C1.15518918 0.90484792 2.29885406 1.8244206 3.4375 2.75 C4.07558594 3.26046875 4.71367187 3.7709375 5.37109375 4.296875 C7.18810554 6.19667629 7.60423197 7.43586908 8 10 C6.33333333 8.33333333 4.66666667 6.66666667 3 5 C2.401875 4.443125 1.80375 3.88625 1.1875 3.3125 C0 2 0 2 0 0 Z " fill="#4FD1C9" transform="translate(171,62)"/>
<path d="M0 0 C1.65 0.33 3.3 0.66 5 1 C3.93453047 3.13093906 2.70840281 4.36587557 1 6 C0.34 5.67 -0.32 5.34 -1 5 C-0.67 3.35 -0.34 1.7 0 0 Z " fill="#1C95BC" transform="translate(85,160)"/>
<path d="M0 0 C0.33 0 0.66 0 1 0 C1 2.64 1 5.28 1 8 C0.01 8.33 -0.98 8.66 -2 9 C-1.51421457 5.87709365 -1.0013988 3.00419641 0 0 Z " fill="#C5EBF5" transform="translate(70,94)"/>
<path d="M0 0 C2.79828356 0.38597015 3.8205884 0.80136573 5.75 2.9375 C7 5 7 5 7 7 C6.34 7 5.68 7 5 7 C5 6.34 5 5.68 5 5 C4.360625 4.731875 3.72125 4.46375 3.0625 4.1875 C1 3 1 3 0 0 Z " fill="#45C6CC" transform="translate(149,70)"/>
<path d="M0 0 C2.31 0 4.62 0 7 0 C7 0.66 7 1.32 7 2 C7.99 2.33 8.98 2.66 10 3 C8 4 8 4 6.0546875 3.44140625 C5.33539063 3.15136719 4.61609375 2.86132812 3.875 2.5625 C3.15054688 2.27503906 2.42609375 1.98757812 1.6796875 1.69140625 C0.84824219 1.34916016 0.84824219 1.34916016 0 1 C0 0.67 0 0.34 0 0 Z " fill="#C5F7F8" transform="translate(144,45)"/>
<path d="M0 0 C0.66 0.33 1.32 0.66 2 1 C0.9375 2.5 0.9375 2.5 -1 4 C-4.6875 4.1875 -4.6875 4.1875 -8 4 C-6.66666667 3.33333333 -5.33333333 2.66666667 -4 2 C-3.29875 1.608125 -2.5975 1.21625 -1.875 0.8125 C-1.25625 0.544375 -0.6375 0.27625 0 0 Z " fill="#B8E3FC" transform="translate(160,179)"/>
<path d="M0 0 C0.66 0.33 1.32 0.66 2 1 C2 1.99 2 2.98 2 4 C0.02 4.33 -1.96 4.66 -4 5 C-2.68 3.35 -1.36 1.7 0 0 Z " fill="#E9EEF2" transform="translate(149,154)"/>
<path d="M0 0 C0.66 0 1.32 0 2 0 C2.20086443 3.71599191 2.1519437 4.77208445 0 8 C-0.99 7.67 -1.98 7.34 -3 7 C-2.34 7 -1.68 7 -1 7 C-0.67 4.69 -0.34 2.38 0 0 Z " fill="#C9F7FB" transform="translate(149,110)"/>
<path d="M0 0 C0.33 0 0.66 0 1 0 C1.125 7.625 1.125 7.625 0 11 C-0.99 11 -1.98 11 -3 11 C-2.690625 10.484375 -2.38125 9.96875 -2.0625 9.4375 C-0.70940713 6.33334577 -0.38640576 3.34884993 0 0 Z " fill="#D2FBFC" transform="translate(181,73)"/>
</svg>
